# xmcd
#
# Track frame offsets: 
#        150
#        8798
#        21672
#        30624
#        40375
#        59824
#        76621
#        90771
#        106083
#        115852
#        127715
#        139741
#        150051
#        163968
#        172893
#        183001
#        191122
#        206097
#
# Disc length: 3108 seconds
#
# Revision: 0
# Processed by: cddbd v1.5.1PL0 Copyright (c) Steve Scherf et al.
# Submitted via: ExactAudioCopy v0.95b1
#
DISCID=da0c2212
DTITLE=Roger Alan Wade - All Likkered Up
DYEAR=1900
DGENRE=
TTITLE0=Butt Ugly Slut
TTITLE1=Gone Back To Whoring
TTITLE2=My Baby Loves Malt Liquor
TTITLE3=Poontang
TTITLE4=Sweet Wine Of Sorrow
TTITLE5=All Likkered Up
TTITLE6=If You're Gonna Be Dumb, You Gotta Be Tough
TTITLE7=Chicken Song
TTITLE8=She's a Baby When She Cries
TTITLE9=Fryin' Bacon Nekkid
TTITLE10=Horse I Wanna Ride
TTITLE11=Counterman
TTITLE12=Johnny Cash Has Died
TTITLE13=BB Gun
TTITLE14=Put Another Log On The Fire
TTITLE15=Butt Ugly Slut (New Version) (Bonus Track)
TTITLE16=All Likkered Up (Demo Version) (Bonus Track)
TTITLE17=Knoxville Girl (Bonus Track)
EXTD=
EXTT0=
EXTT1=
EXTT2=
EXTT3=
EXTT4=
EXTT5=
EXTT6=
EXTT7=
EXTT8=
EXTT9=
EXTT10=
EXTT11=
EXTT12=
EXTT13=
EXTT14=
EXTT15=
EXTT16=
EXTT17=
PLAYORDER=
